<svg width="130" height="87" viewBox="0 0 130 87" fill="none" xmlns="http://www.w3.org/2000/svg">
<path fill-rule="evenodd" clip-rule="evenodd" d="M42.097 61.2091H87.9032V47.363H42.097V61.2091ZM34.2636 86.9777H95.7349V73.1316H34.2636V86.9777Z" fill="#FB2E13"/>
<path d="M94.1275 26.5934C74.0512 14.3852 65.0125 0.568848 65.0125 0.568848H64.9862C64.9862 0.568848 55.9487 14.3852 35.8725 26.5934C26.425 32.3376 14.6037 37.2977 0 41.0804L14.1475 53.6444C14.1475 53.6444 27.2887 47.7519 44.0412 34.285C59.09 22.1878 64.13 11.6562 65 9.63918C65.8687 11.6562 70.9087 22.1878 85.9587 34.285C102.711 47.7519 115.852 53.6444 115.852 53.6444L130 41.0804C115.395 37.2977 103.575 32.3376 94.1275 26.5934Z" fill="#FB2E13"/>
</svg>
