<svg width="260" height="53" viewBox="0 0 260 53" fill="none" xmlns="http://www.w3.org/2000/svg">
<path d="M9.84 41V18.88H0.84V13H25.72V18.88H16.72V41H9.84ZM21.8378 41L32.7578 13H40.5978L51.3578 41H43.9178L41.5978 34.32H31.3578L28.9978 41H21.8378ZM33.2378 29H39.7578L36.5178 19.72L33.2378 29ZM54.5653 41V13H61.0453L73.4853 29.96L73.3653 13H79.8453V41H73.7653L60.9253 23.48L61.0453 41H54.5653ZM97.9288 41.4C95.4221 41.4 93.2354 40.8933 91.3688 39.88C89.5021 38.84 88.0621 37.3867 87.0488 35.52C86.0354 33.6267 85.5288 31.4 85.5288 28.84V13H92.4088V28.84C92.4088 30.12 92.6354 31.24 93.0888 32.2C93.5421 33.16 94.1821 33.9067 95.0088 34.44C95.8354 34.9733 96.8088 35.24 97.9288 35.24C99.0488 35.24 100.022 34.9733 100.849 34.44C101.675 33.9067 102.315 33.16 102.769 32.2C103.222 31.24 103.449 30.12 103.449 28.84V13H110.329V28.84C110.329 31.4 109.822 33.6267 108.809 35.52C107.795 37.3867 106.355 38.84 104.489 39.88C102.649 40.8933 100.462 41.4 97.9288 41.4ZM116.011 41V13H122.891V25.16L133.331 13H141.531L129.291 26.16L142.251 41H133.251L122.891 28.28V41H116.011ZM144.126 41V13H151.006V41H144.126ZM164.511 41V15.72H154.831V13H177.271V15.72H167.591V41H164.511ZM181.958 41V13H201.078V15.72H185.038V25.52H196.158V28.2H185.038V38.28H201.238V41H181.958ZM218.043 41.44C216.043 41.44 214.176 41.08 212.443 40.36C210.736 39.6133 209.229 38.5867 207.923 37.28C206.616 35.9467 205.603 34.4133 204.883 32.68C204.163 30.92 203.803 29.0267 203.803 27C203.803 24.9733 204.163 23.0933 204.883 21.36C205.603 19.6 206.616 18.0667 207.923 16.76C209.229 15.4267 210.736 14.4 212.443 13.68C214.176 12.9333 216.043 12.56 218.043 12.56C219.429 12.56 220.749 12.7467 222.003 13.12C223.283 13.4667 224.483 13.9867 225.603 14.68C226.723 15.3467 227.723 16.1733 228.603 17.16L226.562 19.28C225.523 18.0267 224.243 17.0667 222.723 16.4C221.229 15.7067 219.669 15.36 218.043 15.36C216.469 15.36 215.003 15.6533 213.643 16.24C212.283 16.8267 211.096 17.6533 210.083 18.72C209.096 19.7867 208.323 21.0267 207.763 22.44C207.203 23.8267 206.923 25.3467 206.923 27C206.923 28.6267 207.203 30.1467 207.763 31.56C208.323 32.9733 209.096 34.2133 210.083 35.28C211.096 36.3467 212.283 37.1733 213.643 37.76C215.003 38.3467 216.469 38.64 218.043 38.64C219.669 38.64 221.229 38.2933 222.723 37.6C224.243 36.9067 225.523 35.9467 226.562 34.72L228.603 36.84C227.723 37.8267 226.723 38.6667 225.603 39.36C224.483 40.0267 223.283 40.5467 222.003 40.92C220.749 41.2667 219.429 41.44 218.043 41.44ZM234.106 41V13H237.186V25.52H253.266V13H256.346V41H253.266V28.28H237.186V41H234.106Z" fill="url(#paint0_linear_259_185)"/>
<defs>
<linearGradient id="paint0_linear_259_185" x1="260" y1="41.075" x2="-1.53443e-07" y2="41.075" gradientUnits="userSpaceOnUse">
<stop stop-color="#009FFA"/>
<stop offset="1" stop-color="#0137FF"/>
</linearGradient>
</defs>
</svg>
