<svg width="115" height="77" viewBox="0 0 115 77" fill="none" xmlns="http://www.w3.org/2000/svg">
<path d="M6.72502 5.71046H21.8976V0.386719H6.72502V5.71046Z" fill="#C7C7C7"/>
<path d="M81.9133 24.0396L77.1831 25.8486L79.1408 30.9076L76.4135 36.4763L79.1182 43.3262L83.8274 41.4608L81.9389 36.7122L84.6527 31.1709L81.9133 24.0396Z" fill="#C7C7C7"/>
<path d="M96.3088 24.0396L91.5771 25.8486L93.5378 30.9092L90.8121 36.4779L93.5138 43.3246L98.2229 41.4608L96.3344 36.7122L99.0482 31.1709L96.3088 24.0396Z" fill="#C7C7C7"/>
<path d="M113.445 31.1709L110.704 24.0396L105.976 25.8502L107.935 30.9092L105.206 36.4779L107.911 43.3246L112.618 41.4608L110.73 36.7122L113.445 31.1709Z" fill="#C7C7C7"/>
<path d="M5.54885 69.9251V41.8899C5.54885 39.2805 6.40424 38.4847 7.82136 37.1671C9.39193 35.7035 11.5095 33.7302 11.7685 29.3633H21.8991L21.8984 16.3657H16.8279V24.0396H11.7971V16.3575H21.8991V11.0353H6.72652L6.72802 28.4595C6.72802 31.0704 5.87113 31.8677 4.45552 33.1838C2.77793 34.7448 0.478271 36.8847 0.478271 41.8899V75.2488H28.1489L28.1482 41.8966C28.1482 36.8908 25.8501 34.7516 24.1709 33.189L24.0918 33.1167C22.8975 32.005 22.0798 31.2437 21.8999 29.37H16.855C17.1108 33.733 19.2292 35.7052 20.8011 37.1685L20.8051 37.1723C22.2237 38.4914 23.0776 39.2872 23.0776 41.8966V69.9251H5.54885Z" fill="#C7C7C7"/>
<path fill-rule="evenodd" clip-rule="evenodd" d="M114.242 53.7177L114.24 53.7224V53.7347H114.236L107.158 75.2394H83.1782L76.1433 53.7347H76.1347V48.6194H114.24L114.242 53.7177ZM103.189 70.1241L108.726 53.7347H81.6553L87.1434 70.1241H103.189Z" fill="#C7C7C7"/>
<path d="M65.6209 37.3485C65.6209 29.9236 59.7235 23.8863 52.4753 23.8863V29.0016C56.933 29.0016 60.5578 32.7445 60.5578 37.3485V37.6315C60.5578 45.3273 55.3096 52.6716 52.4723 56.0813C52.4723 56.0813 49.9438 58.9645 49.9438 60.9212V69.2971L45.9379 72.4207L49.0312 76.4694L52.4753 73.7809L55.9195 76.4694L59.0127 72.4192L55.0069 69.2955V62.8033C55.0069 61.5054 55.5791 60.416 56.064 59.7253C56.2749 59.4742 56.5008 59.2049 56.7372 58.9158C60.0895 54.7987 65.6224 46.6464 65.6224 37.63L65.6209 37.3485Z" fill="#C7C7C7"/>
<path d="M39.3279 37.347C39.3279 29.9251 45.2271 23.8863 52.4753 23.8863V29.0016C48.0177 29.0016 44.391 32.746 44.391 37.347V37.63C44.391 45.3532 49.6321 52.6792 52.4723 56.0813C52.4723 56.0813 49.9438 58.9645 49.9438 60.9212C47.3807 58.1338 39.3279 48.5088 39.3279 37.63V37.347Z" fill="#C7C7C7"/>
</svg>
