<svg width="215" height="71" viewBox="0 0 215 71" fill="none" xmlns="http://www.w3.org/2000/svg">
<path fill-rule="evenodd" clip-rule="evenodd" d="M178.037 70.464C198.115 70.464 214.391 54.695 214.391 35.243C214.391 15.791 198.115 0.0219727 178.037 0.0219727C157.958 0.0219727 141.682 15.791 141.682 35.243C141.682 54.695 157.958 70.464 178.037 70.464ZM176.488 18.2339C167.891 18.3073 162.164 22.7851 162.224 29.3789C162.258 32.7859 164.102 35.8628 167.244 37.8798L158.231 51.3426L170.31 51.2362L177.506 39.8161L183.01 39.7685L183.116 51.1262L193.374 51.0382L193.128 24.3547L193.105 18.0982L176.488 18.2339ZM176.836 26.3717L183.165 26.3534L183.18 31.781L176.677 31.7957C172.874 31.8067 172.869 30.7022 172.861 29.1032L172.861 29.0965V29.0929C172.861 27.8212 172.861 26.3791 176.836 26.3717ZM144.373 14.8016C140.531 20.7243 138.309 27.7325 138.309 35.2432C138.309 42.7356 140.52 49.7255 144.347 55.6372C140.001 58.7434 134.633 60.5771 128.823 60.5771C114.363 60.5771 102.639 49.2194 102.639 35.2102C102.639 21.201 114.363 9.84332 128.823 9.84332C134.645 9.84332 140.024 11.6843 144.373 14.8016ZM36.3908 35.0927V47.1032C36.3908 50.3525 35.0243 53.301 32.8212 55.4354L32.8098 55.4244C30.5954 57.5661 27.5557 58.8937 24.2208 58.8937C20.8897 58.8937 17.8462 57.5661 15.6318 55.4244L15.6204 55.4354C13.4173 53.301 12.0508 50.3525 12.0508 47.1032V35.0927C8.96569 34.9277 6.17586 33.6441 4.1204 31.6528C1.9173 29.5184 0.550781 26.5698 0.550781 23.3206C0.550781 20.0713 1.9173 17.1228 4.1204 14.9884L4.13175 14.9994C6.3462 12.8577 9.38587 11.5301 12.7208 11.5301H35.7208C39.0519 11.5301 42.0954 12.8577 44.3098 14.9994L44.3212 14.9884C46.5243 17.1228 47.8908 20.0713 47.8908 23.3206C47.8908 26.5698 46.5243 29.5184 44.3212 31.6528C42.2657 33.6405 39.4797 34.9277 36.3908 35.0927ZM79.9536 17.4822L76.3348 23.5516L72.7046 17.4822C71.0315 14.673 68.3287 12.7844 65.3231 12.0032C62.8739 11.3688 60.2166 11.4715 57.7372 12.4176H57.4684L56.0981 13.1841C53.1985 14.8051 51.249 17.4235 50.4427 20.3354C49.9923 21.971 49.9014 23.702 50.2081 25.4073C50.5848 27.4979 51.0971 28.342 51.9843 29.8036C52.1133 30.0163 52.2503 30.242 52.396 30.4865L64.5849 50.9392C64.7391 51.198 64.89 51.4586 65.0409 51.719L65.0414 51.7198L65.0418 51.7205C65.669 52.8032 66.2952 53.8839 67.1401 54.8266C68.0486 55.8424 69.1388 56.7079 70.3539 57.368C72.1216 58.3582 74.1128 58.8606 76.1114 58.89C78.095 58.9193 80.0861 58.4792 81.8841 57.5881C85.0717 56.0042 86.1825 54.1302 87.7715 51.4494L88.0657 50.9539L100.997 29.2763C102.677 26.4562 103.018 23.2399 102.215 20.3354C101.413 17.4272 99.4597 14.8087 96.5601 13.1841L95.1898 12.4176H94.921C92.4454 11.4715 89.7843 11.3688 87.3351 12.0032C84.3333 12.7807 81.6305 14.673 79.9536 17.4822Z" fill="#C7C7C7"/>
</svg>
